#!OML:ASF X:\für Bonn\!DataBase\2005_08_10_Bjorn_Final\c3d\bjorn.ASF
:FULLY-SPECIFIED
:DEGREES
153
root -19.8535 19.317 -1.15678 1438.53 -68.1917 1.88085
lowerback -8.7943 6.04807 -2.98071
upperback 6.08085 9.22226 -7.95287
thorax 12.5443 4.49762 -5.27813
lowerneck -1.04918 -12.2923 4.46256
upperneck 8.18834 -17.1349 5.06237
head 2.90911 -8.28467 0.404666
rclavicle -4.77083e-015 -6.36111e-014
rhumerus 29.5626 2.82374 -27.7333
rradius 46.2501
rwrist -28.1471
rhand -5.13262 13.2234
rfingers 7.12502
rthumb 20.666 -15.6963
lclavicle -4.77083e-015 -6.36111e-014
lhumerus -30.2002 -4.06398 77.9051
lradius 25.0493
lwrist -13.9467
lhand -22.0975 -5.42018
lfingers 7.12502
lthumb 4.3146 24.5159
rfemur -4.3685 8.31468 13.4697
rtibia 29.2494
rfoot -3.42471 33.6728
rtoes 8.37143
lfemur -13.5893 0.677015 -17.3908
ltibia 28.4324
lfoot -3.17816 -23.7499
ltoes 8.45207
154
root -19.8293 19.3148 -1.19887 1438.39 -67.8523 2.07248
lowerback -8.78605 5.99375 -2.94499
upperback 6.11606 9.14395 -7.89746
thorax 12.567 4.46145 -5.25235
lowerneck -1.06671 -12.2528 4.391
upperneck 8.30161 -17.0877 5.0458
head 2.95551 -8.25781 0.404988
rclavicle 7.79236e-014 -1.90833e-014
rhumerus 29.6695 1.90341 -28.4766
rradius 46.4955
rwrist -27.465
rhand -6.39041 13.8497
rfingers 7.12502
rthumb 19.457 -15.1968
lclavicle 7.79236e-014 -1.90833e-014
lhumerus -30.2199 -4.17205 77.9929
lradius 25.1923
lwrist -13.7995
lhand -22.2075 -5.47695
lfingers 7.12502
lthumb 4.20837 24.4612
rfemur -4.33266 8.55746 13.4168
rtibia 28.9709
rfoot -3.07332 34.1764
rtoes 8.6969
lfemur -13.8095 0.390079 -17.3897
ltibia 28.4281
lfoot -2.95572 -23.7888
ltoes 8.73694
155
root -19.8018 19.3111 -1.24167 1438.21 -67.516 2.31966
lowerback -8.74997 5.95168 -2.9174
upperback 6.14432 9.08001 -7.84201
thorax 12.5645 4.43176 -5.22147
lowerneck -1.10406 -12.2256 4.30068
upperneck 8.41456 -17.0549 5.00632
head 3.00481 -8.23865 0.399363
rclavicle 7.27552e-014 -6.99722e-014
rhumerus 29.7284 0.891336 -29.2465
rradius 46.8405
rwrist -27.0129
rhand -7.60634 14.4929
rfingers 7.12502
rthumb 18.2876 -14.6674
lclavicle 7.27552e-014 -6.99722e-014
lhumerus -30.2012 -4.33252 78.1185
lradius 25.314
lwrist -13.5867
lhand -22.3076 -5.5063
lfingers 7.12502
lthumb 4.11172 24.4338
rfemur -4.33212 8.75392 13.3217
rtibia 28.686
rfoot -2.68084 34.7451
rtoes 9.01646
lfemur -14.0663 0.0823282 -17.4215
ltibia 28.4473
lfoot -2.80858 -23.8248
ltoes 8.72448
156
root -19.7735 19.3071 -1.28648 1438.09 -67.1588 2.5018
lowerback -8.69707 5.91545 -2.86779
upperback 6.16626 9.01954 -7.79023
thorax 12.5491 4.40624 -5.20751
lowerneck -1.13128 -12.2002 4.1958
upperneck 8.55336 -17.0276 4.98846
head 3.06505 -8.22142 0.401754
rclavicle 6.55989e-014 6.36111e-015
rhumerus 29.7464 -0.265192 -30.1617
rradius 47.2427
rwrist -26.5898
rhand -8.7315 15.1711
rfingers 7.12502
rthumb 17.2049 -14.0873
lclavicle 6.55989e-014 6.36111e-015
lhumerus -30.1813 -4.51371 78.2344
lradius 25.4527
lwrist -13.3899
lhand -22.5011 -5.52261
lfingers 7.12502
lthumb 3.9249 24.421
rfemur -4.32369 8.98543 13.2687
rtibia 28.3833
rfoot -2.30601 35.2385
rtoes 9.45392
lfemur -14.3421 -0.259604 -17.4163
ltibia 28.4868
lfoot -2.62273 -23.8344
ltoes 8.70388
157
root -19.7431 19.3011 -1.33345 1437.93 -66.7977 2.73164
lowerback -8.63888 5.87627 -2.83583
upperback 6.20674 8.9581 -7.73575
thorax 12.5487 4.37836 -5.18139
lowerneck -1.15917 -12.1727 4.04414
upperneck 8.63578 -16.9924 4.99031
head 3.1122 -8.20295 0.419042
rclavicle -1.25632e-013 7.95139e-014
rhumerus 29.7898 -1.54765 -31.1861
rradius 47.748
rwrist -26.2514
rhand -9.77368 15.8516
rfingers 7.12502
rthumb 16.2016 -13.4913
lclavicle -1.25632e-013 7.95139e-014
lhumerus -30.1475 -4.71221 78.365
lradius 25.6441
lwrist -13.1236
lhand -22.6026 -5.59071
lfingers 7.12502
lthumb 3.82684 24.3547
rfemur -4.31857 9.17789 13.1962
rtibia 28.065
rfoot -2.03689 35.7175
rtoes 9.71897
lfemur -14.6511 -0.528 -17.4371
ltibia 28.5574
lfoot -2.42207 -23.9292
ltoes 8.74984
158
root -19.7109 19.2945 -1.38151 1437.83 -66.4075 2.90044
lowerback -8.54218 5.84179 -2.76413
upperback 6.22077 8.89376 -7.69554
thorax 12.5029 4.35421 -5.19699
lowerneck -1.10488 -12.1523 3.94472
upperneck 8.68813 -16.9581 4.96625
head 3.12668 -8.18751 0.42855
rclavicle 8.5875e-014 -4.77083e-014
rhumerus 29.765 -2.90387 -32.3293
rradius 48.3515
rwrist -25.8915
rhand -10.6607 16.5023
rfingers 7.12502
rthumb 15.3474 -12.9082
lclavicle 8.5875e-014 -4.77083e-014
lhumerus -30.146 -4.94379 78.4596
lradius 25.8309
lwrist -12.9863
lhand -22.7241 -5.62471
lfingers 7.12502
lthumb 3.70955 24.3227
rfemur -4.30471 9.34881 13.1461
rtibia 27.7274
rfoot -1.65587 36.1086
rtoes 10.5192
lfemur -14.9734 -0.899047 -17.4313
ltibia 28.6477
lfoot -2.24609 -23.9261
ltoes 8.74456
